<?xml version="1.0" encoding="UTF-8"?>
<svg width="18px" height="16px" viewBox="0 0 18 16" version="1.1" xmlns="http://www.w3.org/2000/svg" xmlns:xlink="http://www.w3.org/1999/xlink">
    <!-- Generator: Sketch 53.1 (72631) - https://sketchapp.com -->
    <title>ic-socialbakers</title>
    <desc>Created with Sketch.</desc>
    <defs>
        <path d="M740.986978,404.294625 C741.13065,405.955071 740.070813,407.447544 738.531773,407.9114 L738.973496,412.97821 L737.917228,412.584985 C736.335057,411.997077 734.673168,411.773904 732.977667,411.921104 C731.278893,412.0686 729.678578,412.575785 728.220447,413.430195 L727.247467,414 L726.806934,408.941797 C724.827956,408.77412 723.193136,407.203893 723.015852,405.164764 C722.816853,402.884062 724.514735,400.867191 726.800687,400.668947 L726.800985,400.668947 C727.15704,400.637785 727.5125,400.652031 727.859334,400.711088 C728.111577,400.754417 728.350435,400.766585 728.568768,400.747591 C729.362382,400.67874 730.05605,400.294419 730.52038,399.665853 C731.233383,398.717366 732.315231,398.117884 733.491374,398.015794 C735.556912,397.836543 737.406793,399.201997 737.891052,401.149126 C739.510107,401.31888 740.840332,402.616373 740.986978,404.294625 Z M737.704547,406.62934 C738.828635,406.531702 739.663,405.539589 739.566029,404.417786 C739.486906,403.515299 738.827742,402.799185 737.988023,402.605095 C737.846434,403.855104 737.132241,404.984326 736.073891,405.657408 L735.028629,404.613656 C736.039386,404.130806 736.67743,403.052036 736.578079,401.915394 C736.446604,400.416096 735.118163,399.302603 733.615116,399.432589 C732.841134,399.499957 732.130511,399.894072 731.664397,400.514625 C730.957046,401.472312 729.90048,402.059923 728.69251,402.164684 C728.352517,402.194064 727.99081,402.176851 727.61899,402.113045 C727.39322,402.074465 727.159419,402.065561 726.924726,402.085742 L726.924131,402.085742 C725.420489,402.216322 724.305028,403.542305 724.435909,405.041603 C724.566492,406.540902 725.895527,407.654395 727.397682,407.523815 C727.641001,407.502744 727.839107,407.458821 728.099679,407.367118 L728.477151,411.685466 C729.846938,411.034048 731.314588,410.637263 732.853628,410.503715 C734.389098,410.370167 735.901366,410.507573 737.362472,410.911778 L736.981728,406.564644 C737.248844,406.632605 737.469854,406.649521 737.704547,406.62934 Z" id="path-1"></path>
    </defs>
    <g id="Page-1" stroke="none" stroke-width="1" fill="none" fill-rule="evenodd">
        <g id="t" transform="translate(-723.000000, -398.000000)">
            <mask id="mask-2" fill="white">
                <use xlink:href="#path-1"></use>
            </mask>
            <use id="ic-socialbakers" fill="#7B174D" xlink:href="#path-1"></use>
        </g>
    </g>
</svg>